<?xml version="1.0" encoding="UTF-8" standalone="no"?>
<!-- Created with Inkscape (http://www.inkscape.org/) -->

<svg
   version="1.1"
   id="svg48"
   width="3713.9565"
   height="5061.8105"
   viewBox="0 0 3713.9565 5061.8105"
   sodipodi:docname="twitter-x-seeklogo-2.svg"
   inkscape:version="1.2.2 (b0a8486541, 2022-12-01)"
   xmlns:inkscape="http://www.inkscape.org/namespaces/inkscape"
   xmlns:sodipodi="http://sodipodi.sourceforge.net/DTD/sodipodi-0.dtd"
   xmlns="http://www.w3.org/2000/svg"
   xmlns:svg="http://www.w3.org/2000/svg">
  <defs
     id="defs52" />
  <sodipodi:namedview
     id="namedview50"
     pagecolor="#ffffff"
     bordercolor="#000000"
     borderopacity="0.25"
     inkscape:showpageshadow="2"
     inkscape:pageopacity="0.0"
     inkscape:pagecheckerboard="0"
     inkscape:deskcolor="#d1d1d1"
     showgrid="false"
     inkscape:zoom="0.085644531"
     inkscape:cx="589.64652"
     inkscape:cy="2533.7286"
     inkscape:window-width="1908"
     inkscape:window-height="1047"
     inkscape:window-x="0"
     inkscape:window-y="0"
     inkscape:window-maximized="1"
     inkscape:current-layer="g54" />
  <g
     inkscape:groupmode="layer"
     inkscape:label="Image"
     id="g54"
     transform="translate(-1006.5986,-29.11694)">
    <path
       style="fill:#000000;stroke-width:1.22239"
       d="m 1425.493,5090.6183 c -24.7181,-1.7163 -58.3252,-8.0054 -84.4266,-15.7998 -137.1313,-40.9489 -251.431,-158.5805 -304.0535,-312.917 -14.1438,-41.4822 -23.6324,-85.8107 -28.7875,-134.4878 -2.1635,-20.4289 -2.1713,-3356.1598 -0.01,-3376.6989 12.9348,-122.8016 55.4165,-226.1178 127.7197,-310.61711 74.1587,-86.66761 162.7435,-136.33108 270.7638,-151.79899 12.9561,-1.8552 39.0167,-2.18753 206.6071,-2.63354 l 191.7806,-0.51056 0.026,-134.57607 c 0.021,-111.02965 0.3332,-137.9523 1.7576,-153.87249 11.9067,-133.07457 65.8926,-253.59647 152.9845,-341.53309 67.8158,-68.473454 150.9369,-110.871238 242.4707,-123.677767 16.2678,-2.275996 61.885,-2.378243 1060.7166,-2.378243 1000.8053,0 1044.3941,0.09808 1060.1503,2.389031 88.9858,12.937593 162.2455,48.595114 231.7488,112.798589 15.8957,14.68349 51.6379,55.84679 64.6221,74.42312 55.6587,79.6285 88.3334,169.67834 99.365,273.84483 2.1636,20.42909 2.1714,3356.15999 0.01,3376.69909 -12.935,122.8014 -55.4166,226.1179 -127.7196,310.6172 -74.1577,86.666 -162.8008,136.3614 -270.7637,151.7952 -12.9424,1.8502 -39.1899,2.1854 -206.6066,2.6369 l -191.7809,0.5171 -0.026,134.5732 c -0.021,111.0267 -0.3334,137.949 -1.7577,153.8691 -11.9046,133.0555 -65.9395,253.6885 -152.9843,341.5383 -67.4444,68.0678 -148.5553,109.6406 -241.3374,123.696 -13.7411,2.0819 -84.6812,2.2425 -1054.4842,2.3842 -571.8634,0.089 -1042.5565,-0.034 -1045.9847,-0.2805 z m 2093.1025,-160.3625 c 60.208,-11.9595 107.4308,-35.8673 151.1606,-76.5292 13.9642,-12.9843 37.1262,-39.7206 47.5673,-54.907 31.3302,-45.5697 53.5509,-100.4036 63.0477,-155.5835 5.9192,-34.39 5.9236,-34.5099 6.4649,-175.6772 l 0.5089,-132.8257 -785.1405,-0.4232 c -605.0693,-0.3265 -787.6091,-0.7886 -795.9056,-2.0161 -78.5814,-11.6262 -141.6387,-38.2293 -202.3368,-85.3628 -24.2328,-18.8179 -44.2738,-38.1521 -67.4775,-65.0998 -36.8903,-42.8415 -62.2004,-83.1932 -84.2919,-134.3855 -24.6935,-57.2232 -38.2496,-110.2142 -45.6132,-178.3034 -1.7801,-16.4615 -1.9346,-117.1507 -2.2554,-1471.7064 l -0.3447,-1454.03553 -188.9598,0.45746 c -171.8091,0.41561 -190.1302,0.66328 -201.8551,2.72805 -50.154,8.83278 -90.3292,26.19581 -129.3269,55.89282 -18.713,14.25 -30.3025,25.0855 -46.8946,43.8452 -48.7702,55.1399 -78.1049,119.304 -91.0325,199.1168 l -3.0966,19.1182 -0.3679,1663.9573 c -0.2699,1221.0508 -0.03,1667.9928 0.9011,1679.1199 10.6577,127.3318 80.9908,240.6164 182.5697,294.0632 30.7356,16.1716 69.0681,27.5956 102.9761,30.6901 2.8048,0.2558 471.458,0.4124 1041.4513,0.3473 990.9419,-0.1136 1036.8737,-0.2212 1048.2514,-2.481 z m 795.4005,-756.8124 c 50.6568,-9.09 90.359,-26.2615 129.327,-55.9357 18.7127,-14.25 30.3025,-25.0857 46.8947,-43.845 49.7888,-56.2921 80.0138,-123.5603 91.5406,-203.7319 l 2.6535,-18.459 V 2180.9221 c 0,-1577.2079 -0.11,-1671.30762 -1.9592,-1684.11257 -11.7897,-81.59879 -40.5423,-147.93744 -88.1334,-203.34036 -47.8911,-55.75188 -106.8014,-90.52614 -174.6836,-103.11443 l -16.2684,-3.01684 H 3263.0487 c -996.0769,0 -1040.8726,0.10079 -1053.3504,2.37252 -54.5236,9.92605 -100.778,31.89075 -142.1866,67.52002 -69.8657,60.11487 -115.5233,151.87814 -125.2965,251.82338 -1.7148,17.53289 -1.5746,3322.86718 0.1417,3341.75858 3.8795,42.7084 13.1567,80.5278 29.2715,119.325 15.4988,37.3148 32.6091,65.9006 56.7292,94.7756 56.2614,67.3514 127.8658,105.5064 206.8388,110.2139 8.7256,0.5202 477.1241,0.8747 1040.8847,0.788 971.2569,-0.1496 1025.696,-0.2793 1037.9149,-2.4715 z"
       id="path216" />
  </g>
</svg>
