<?xml version="1.0" encoding="UTF-8" standalone="no"?>
<!-- Created with Inkscape (http://www.inkscape.org/) -->

<svg
   version="1.1"
   id="svg362"
   width="158.61861"
   height="134.27029"
   viewBox="0 0 158.61861 134.27029"
   sodipodi:docname="Luxury_Blub_logo_vector.svg"
   inkscape:version="1.2.2 (b0a8486541, 2022-12-01)"
   xmlns:inkscape="http://www.inkscape.org/namespaces/inkscape"
   xmlns:sodipodi="http://sodipodi.sourceforge.net/DTD/sodipodi-0.dtd"
   xmlns="http://www.w3.org/2000/svg"
   xmlns:svg="http://www.w3.org/2000/svg">
  <defs
     id="defs366" />
  <sodipodi:namedview
     id="namedview364"
     pagecolor="#ffffff"
     bordercolor="#000000"
     borderopacity="0.25"
     inkscape:showpageshadow="2"
     inkscape:pageopacity="0.0"
     inkscape:pagecheckerboard="0"
     inkscape:deskcolor="#d1d1d1"
     showgrid="false"
     inkscape:zoom="7.5699788"
     inkscape:cx="69.683155"
     inkscape:cy="61.95526"
     inkscape:window-width="1908"
     inkscape:window-height="1047"
     inkscape:window-x="0"
     inkscape:window-y="0"
     inkscape:window-maximized="1"
     inkscape:current-layer="g368" />
  <g
     inkscape:groupmode="layer"
     inkscape:label="Image"
     id="g368"
     transform="translate(-63.294872,-103.46176)">
    <path
       style="fill:#000000;stroke-width:0.16"
       d="m 124.88247,237.6797 c -0.308,-0.0353 -1.388,-0.14188 -2.4,-0.23684 -11.88918,-1.1156 -23.948275,-5.93648 -33.629315,-13.44404 -5.24349,-4.06627 -10.3677,-9.49257 -14.03971,-14.8674 -6.41578,-9.39095 -10.31532,-20.19053 -11.28194,-31.24484 -0.31292,-3.57856 -0.31573,-8.48124 -0.007,-12.10716 0.92622,-10.87563 4.65723,-21.44338 10.8476,-30.72483 8.63403,-12.94532 22.05661,-22.72811 36.774505,-26.80238 5.10276,-1.41257 9.65916,-2.17582 14.81552,-2.48176 l 2.75972,-0.16374 0.68028,-0.67987 c 1.08752,-1.0869 2.02508,-1.46424 3.64027,-1.46508 1.7375,-9.6e-4 2.69757,0.39984 3.83229,1.59964 0.44424,0.46972 0.80771,0.92359 0.80771,1.0086 0,0.085 0.378,0.20233 0.84,0.26071 1.85321,0.23418 6.49905,1.25371 9.18821,2.01635 12.34995,3.50243 23.96441,11.09125 32.30446,21.10753 4.94827,5.94281 9.11362,13.24852 11.50587,20.18042 l 0.58682,1.70042 1.09301,0.74682 c 1.24692,0.85199 3.31182,2.942 3.86707,3.91412 0.20601,0.36066 0.42915,0.65631 0.49587,0.65698 0.0667,6.4e-4 0.62685,-0.42324 1.24475,-0.94205 3.21418,-2.69874 7.81008,-3.69849 14.08245,-3.06335 4.02832,0.4079 5.68918,0.0432 6.55373,-1.43919 0.7503,-1.28649 1.8408,-0.9484 2.26579,0.70248 0.33102,1.28582 0.24418,4.4 -0.1651,5.92001 -1.33639,4.96326 -5.37152,9.65055 -10.53968,12.2431 -1.90434,0.9553 -3.21445,1.41782 -5.55253,1.96028 -2.86893,0.66563 -4.53859,1.53169 -6.01557,3.12032 -1.20674,1.29796 -1.53184,1.80673 -3.37227,5.27748 -1.60776,3.03199 -1.8064,3.50118 -2.15941,5.10065 -2.73392,12.38678 -8.54182,23.24853 -17.18347,32.1359 -5.61911,5.7789 -10.98922,9.70346 -18.1876,13.29181 -6.84848,3.41394 -13.50901,5.38443 -21.7324,6.42946 -1.81567,0.23073 -10.57618,0.44347 -11.92,0.28945 z m 8.56,-0.5492 c 13.67258,-0.99363 26.29906,-5.90212 36.88,-14.337 2.77718,-2.21391 7.7752,-7.212 9.97872,-9.97892 1.52067,-1.90944 4.35691,-5.97468 4.8965,-7.01825 l 0.19558,-0.37824 -0.69541,0.43176 c -3.87301,2.40475 -8.99381,3.44249 -14.63077,2.96494 l -2.38593,-0.20213 -1.95528,0.98016 c -8.41455,4.21808 -17.74408,6.81868 -27.64341,7.70554 -2.90642,0.26038 -9.48387,0.21678 -12.64,-0.0838 -12.51893,-1.19219 -24.18947,-5.71657 -32.876105,-12.74523 -0.90729,-0.73411 -1.73392,-1.39793 -1.83692,-1.47513 -0.11794,-0.0884 -0.63005,0.0726 -1.38285,0.43467 -1.44643,0.69571 -3.6517,1.30096 -5.90893,1.62176 -3.12006,0.44342 -8.008,0.25688 -10.22461,-0.39021 -0.30216,-0.0882 -0.56854,-0.14123 -0.59195,-0.11784 -0.0728,0.0729 2.85912,4.60491 3.85058,5.95198 2.94096,3.99586 7.97185,9.27085 11.61078,12.17421 9.55424,7.62293 20.300275,12.24855 32.480005,13.98101 4.31658,0.61398 8.76259,0.77992 12.88,0.4807 z m 6.29605,-21.99153 c 3.34793,-0.37056 6.59574,-0.95053 9.86395,-1.76143 2.92002,-0.72451 7.52938,-2.12692 7.4037,-2.2526 -0.0378,-0.0378 -0.69276,0.14228 -1.45552,0.40012 -3.31116,1.11924 -8.89173,2.36391 -12.91252,2.87994 -15.85422,2.03478 -31.81041,-1.24094 -43.323315,-8.89408 -12.22302,-8.12518 -20.13501,-21.08094 -21.62845,-35.41633 -0.2316,-2.22299 -0.19523,-6.95259 0.0729,-9.47889 0.77031,-7.25814 3.58615,-15.26009 7.54503,-21.44111 0.38046,-0.594 0.61584,-1.08 0.52309,-1.08 -0.37655,0 -2.1749,1.93019 -3.05594,3.28 -3.38254,5.18223 -5.61157,11.80646 -6.37994,18.96 -0.25264,2.35211 -0.25233,7.9967 0,10.48 0.23916,2.34825 0.69106,5.04541 1.21973,7.28 2.00722,8.4838 6.90237,16.58993 13.74675,22.76391 9.281725,8.37256 21.581675,13.37452 35.683925,14.5114 2.53333,0.20422 9.98988,0.0686 12.69605,-0.23093 z m 0.66395,-2.4001 c 3.0768,-0.34774 6.66138,-0.9679 9.31322,-1.61126 2.28348,-0.554 7.53566,-2.15747 7.426,-2.26714 -0.0319,-0.0319 -0.94924,0.19213 -2.03858,0.49781 -4.15448,1.16573 -7.83198,1.89784 -12.30064,2.44882 -3.3073,0.40776 -12.18133,0.40504 -15.59843,-0.005 -16.64931,-1.99692 -29.837195,-9.41143 -38.041355,-21.3877 -5.59588,-8.16875 -8.44724,-18.29607 -7.79987,-27.70317 0.63571,-9.23771 3.66821,-17.60642 9.15616,-25.26814 l 0.93611,-1.30692 -0.7663,0.11491 c -0.42147,0.0632 -0.89074,0.18149 -1.0428,0.26286 -0.36974,0.19786 -3.07998,4.29934 -4.16331,6.30046 -4.0225,7.43032 -5.91883,14.7188 -5.93215,22.8 -0.006,3.49438 0.15688,5.24426 0.79391,8.54249 1.64689,8.5269 5.94913,16.72813 12.12933,23.12177 4.00878,4.14721 8.231215,7.20265 13.608705,9.8475 6.66933,3.28024 13.8249,5.14714 22.4,5.84419 2.42786,0.19736 9.30701,0.0637 11.92,-0.23166 z m -0.22323,-2.64808 c 3.68264,-0.29233 7.86293,-0.94341 10.86323,-1.6919 2.37152,-0.59163 4.57565,-1.22199 4.5083,-1.28933 -0.0326,-0.0326 -1.24025,0.18821 -2.68376,0.49061 -17.29281,3.6227 -34.68892,1.20773 -47.18454,-6.55031 -3.66138,-2.2732 -7.816535,-5.87788 -10.599495,-9.19528 -3.87256,-4.61625 -6.97201,-10.74484 -8.42456,-16.658 -0.90781,-3.69561 -1.05539,-5.07614 -1.05,-9.82199 0.005,-4.73263 0.18432,-6.2819 1.20643,-10.44599 1.47823,-6.02228 4.64536,-12.54371 8.58818,-17.6838 0.39226,-0.51138 0.6753,-0.96769 0.62896,-1.01402 -0.0463,-0.0463 -0.50392,-0.12168 -1.01688,-0.16744 l -0.93264,-0.0832 -1.05941,1.41722 c -7.17128,9.59334 -10.53656,20.63487 -9.57549,31.41722 1.36442,15.30753 10.71258,28.63001 25.034905,35.67839 6.11019,3.007 13.48982,4.98888 20.8,5.58612 2.36147,0.19292 8.53045,0.19955 10.89677,0.0117 z m 0.86323,-2.88 c 3.75314,-0.23073 9.27638,-0.95819 10.8,-1.42245 0.65278,-0.19889 0.35277,-0.2038 -0.8,-0.0131 -5.65507,0.9357 -14.69333,1.1624 -20.1215,0.50469 -7.46914,-0.90501 -13.38442,-2.59861 -19.16392,-5.48677 -5.37615,-2.6866 -9.69847,-5.99348 -13.222075,-10.11582 -6.04625,-7.07355 -9.17251,-15.48429 -9.17251,-24.67724 0,-4.30544 0.45416,-7.48661 1.67378,-11.72387 1.45792,-5.0652 4.31595,-10.76886 7.58728,-15.14162 1.461555,-1.95366 1.409505,-1.81014 0.7556,-2.08336 -0.31151,-0.13015 -0.69564,-0.23664 -0.85362,-0.23664 -0.26432,0 -1.32416,1.29149 -2.95429,3.6 -1.07859,1.52744 -2.59197,4.1722 -3.66221,6.4 -5.05515,10.52282 -5.78948,21.70673 -2.10016,31.98536 1.26904,3.53564 3.7242,7.90491 6.27362,11.16481 1.38155,1.76656 4.513475,4.90152 6.405175,6.41141 9.76672,7.79539 23.808,11.74125 38.55483,10.83462 z m 35.14125,-0.48929 c 1.68393,-0.23421 3.98969,-0.84728 5.12485,-1.36264 l 0.9339,-0.42399 -1.12,-0.20208 c -1.48227,-0.26747 -2.99008,-0.85465 -4.77613,-1.86 -3.54614,-1.99609 -5.73521,-4.17389 -12.33958,-12.27606 -2.28485,-2.80303 -5.71186,-6.14338 -8.24083,-8.03243 -1.80274,-1.34659 -5.66244,-3.71037 -7.77696,-4.76283 -2.73106,-1.35932 -6.43418,-2.41718 -8.48336,-2.42342 l -1.13687,-0.003 -0.0947,1.01461 c -0.12978,1.38985 0.13755,4.55314 0.51702,6.11779 1.58237,6.52458 7.01266,13.41701 14.33146,18.1903 4.80986,3.13696 10.6287,5.34544 15.8457,6.01402 1.60897,0.20619 5.76416,0.21206 7.21555,0.0102 z m -33.36947,-2.07999 c 1.62152,-0.0952 3.59622,-0.26422 4.38822,-0.37563 1.31013,-0.18429 1.03594,-0.19566 -3.04,-0.12616 -7.60843,0.12976 -13.17571,-0.47658 -19.52,-2.12594 -12.86267,-3.34393 -22.67458,-10.70284 -27.824755,-20.86846 -1.72066,-3.3963 -2.64154,-6.22993 -3.33127,-10.25073 -0.40348,-2.35217 -0.47825,-7.23525 -0.14942,-9.76 0.92318,-7.08832 4.09902,-14.54526 8.784325,-20.62579 l 1.03699,-1.34578 -0.37793,-0.29157 c -0.54834,-0.42304 -0.9202,-0.51077 -1.1957,-0.28212 -0.13333,0.11065 -0.77635,0.93384 -1.42893,1.82931 -4.187235,5.74568 -7.164915,12.57519 -8.303455,19.04454 -0.45834,2.6044 -0.65247,6.50933 -0.45028,9.05758 0.69328,8.73761 4.1146,16.29752 10.187705,22.51131 2.27554,2.32824 3.76736,3.56475 6.49272,5.38152 9.12392,6.08213 21.4685,9.00655 34.73178,8.22792 z m -58.971785,-1.6579 c 2.3964,-0.40309 5.04,-1.26213 5.04,-1.63775 0,-0.0562 -0.70592,-0.82875 -1.5687,-1.71673 -2.78538,-2.86679 -5.20932,-6.14768 -7.21466,-9.76536 -0.53379,-0.96295 -1.00384,-1.82695 -1.04458,-1.92 -0.11854,-0.27079 -1.27966,1.13032 -2.15865,2.60481 -1.80899,3.03456 -3.20935,7.90599 -3.21247,11.17522 -0.002,1.15678 -0.0766,1.10675 2.15906,1.43115 1.78091,0.25842 5.97966,0.16848 8,-0.17134 z m 101.389495,-0.10744 c 0.40704,-0.21386 0.79273,-0.17107 1.11889,0.12409 0.16148,0.14613 0.32103,0.23613 0.35456,0.2 0.0336,-0.0361 0.63517,-1.21768 1.33696,-2.62568 1.3802,-2.76912 2.06068,-4.40756 3.14274,-7.56692 0.98043,-2.86266 2.2771,-7.55308 2.08805,-7.55308 -0.0335,0 -0.43587,0.558 -0.89411,1.24 -1.23144,1.83274 -3.05487,4.21274 -4.62122,6.03184 -2.23778,2.59884 -6.49926,6.69308 -8.95214,8.60082 l -0.55628,0.43264 0.89255,0.39472 c 2.08811,0.92347 5.03997,1.27322 6.09,0.72157 z M 72.013245,198.59583 c 0.65176,-4.31656 2.56663,-8.75912 5.02988,-11.66952 l 0.98878,-1.16829 -0.83142,-2.09894 c -0.9962,-2.51488 -1.12568,-2.93953 -1.74549,-5.72449 -0.87389,-3.92662 -1.18933,-7.17824 -1.19515,-12.32 -0.006,-4.90387 0.16822,-6.81388 0.96705,-10.62919 3.62224,-17.30023 15.38402,-28.6309 31.335575,-30.18701 2.38728,-0.23289 7.58168,-0.0958 9.67778,0.25544 7.86708,1.31823 16.69979,5.64013 24.72222,12.09673 3.59195,2.89087 6.36738,5.6463 9.97587,9.90403 0.93227,1.1 2.51741,2.936 3.52253,4.08 1.00512,1.144 2.3488,2.728 2.98594,3.52 3.32891,4.13799 8.67361,9.7222 11.43566,11.94811 3.21763,2.59307 6.90285,4.74644 9.65085,5.63924 4.05081,1.31608 8.04072,1.13731 8.83352,-0.39579 0.36686,-0.70944 0.29542,-0.88053 -0.60437,-1.44744 -4.11149,-2.59039 -7.4965,-6.0203 -9.81693,-9.94713 -2.22654,-3.76795 -3.20813,-8.38388 -2.56477,-12.06094 0.31717,-1.81281 1.15082,-4.15972 1.65759,-4.66649 0.46733,-0.46733 1.08848,-0.37645 1.56411,0.22886 2.27331,2.89311 4.36995,4.12425 9.37726,5.50634 1.58762,0.4382 3.02037,0.86834 3.18389,0.95585 0.16352,0.0875 0.48703,0.23125 0.71891,0.31941 0.51316,0.1951 0.54594,0.33489 -0.67528,-2.88002 -1.43267,-3.77162 -4.02609,-8.77931 -6.33892,-12.24 -8.38013,-12.53914 -20.64136,-21.78326 -34.80636,-26.24156 -2.94489,-0.92688 -5.45316,-1.55787 -8.23016,-2.07042 -2.94169,-0.54295 -2.84289,-0.55014 -2.63745,0.19198 0.45696,1.65063 -0.38272,4.03104 -1.82371,5.17008 -1.08372,0.85662 -2.12564,1.1656 -3.62792,1.07584 -1.90632,-0.1139 -3.34264,-1.02832 -4.2586,-2.71122 -0.57564,-1.05766 -0.73985,-2.9 -0.3583,-4.01981 l 0.24286,-0.71279 -1.4631,0.0669 c -4.85387,0.2219 -9.23328,0.8107 -12.98312,1.74556 -12.44211,3.10186 -23.068065,9.22698 -31.894675,18.38501 -6.78674,7.04157 -11.70215,15.21836 -14.95701,24.88094 -2.42425,7.19681 -3.61407,16.04206 -3.17118,23.57489 0.54211,9.22036 2.55537,17.17864 6.31681,24.96985 l 1.30605,2.70527 0.12016,-1.18527 c 0.0661,-0.65189 0.23286,-1.93168 0.37062,-2.844 z m 50.389225,-82.80532 c -2.63571,-1.16163 -2.34171,-5.11765 0.4359,-5.86559 2.31296,-0.62281 4.43743,1.49769 3.81527,3.80818 -0.4769,1.77106 -2.58547,2.79154 -4.25117,2.05741 z m 2.31262,-0.911 c 2.01642,-1.13329 1.30904,-4.12405 -0.98632,-4.17012 -2.44544,-0.0491 -3.2506,3.11555 -1.07492,4.22495 0.72497,0.36968 1.3348,0.35346 2.06124,-0.0548 z m 14.32738,87.11637 c -5.92656,-0.57141 -10.19715,-1.41022 -14.56,-2.85981 -14.79931,-4.91718 -24.610165,-15.69073 -26.737815,-29.36148 -0.34384,-2.20923 -0.38358,-6.68852 -0.0795,-8.96 0.83078,-6.20614 3.348655,-12.31589 7.233875,-17.55338 0.6069,-0.81812 1.10344,-1.53787 1.10344,-1.59944 0,-0.18816 -1.01074,-1.16718 -1.20499,-1.16718 -0.10021,0 -0.64984,0.63 -1.22138,1.4 -4.419425,5.95395 -7.141045,12.2097 -8.161715,18.76 -0.33286,2.13613 -0.28077,8.32262 0.0869,10.32 0.88893,4.82929 2.3804,8.59668 4.972385,12.55999 5.10623,7.80776 13.46799,13.47832 24.29564,16.47618 3.86752,1.0708 8.6104,1.84218 12.75318,2.07416 3.33923,0.18698 3.98838,0.14896 1.52,-0.089 z m 37.92,-1.75933 0.48,-0.40654 -0.56,0.10424 c -0.308,0.0573 -0.69098,0.14128 -0.85104,0.18656 -0.28139,0.0796 -0.28139,0.0897 0,0.30297 0.37773,0.28634 0.37005,0.28789 0.93104,-0.18723 z m -38.08,-0.55579 c -6.73301,-0.89219 -11.70782,-2.34949 -17.12,-5.01509 -10.78512,-5.31185 -17.78246,-13.87027 -20.0239,-24.49108 -0.39498,-1.87155 -0.43954,-2.40872 -0.44461,-5.36 -0.003,-1.94891 0.0785,-3.79946 0.20168,-4.56 0.82942,-5.12143 3.01081,-10.14894 6.23961,-14.38067 l 0.71773,-0.94067 -0.27313,-0.49933 c -0.54221,-0.99126 -0.69832,-1.13093 -0.99183,-0.88734 -0.14545,0.12071 -0.91142,1.19339 -1.70217,2.38374 -7.481945,11.26289 -8.080405,24.45511 -1.5968,35.19969 1.82953,3.03189 4.98992,6.64761 7.79342,8.91629 4.18608,3.38747 9.78747,6.23862 15.44,7.85907 4.1819,1.19886 9.35595,2.03792 12.72,2.06277 1.23195,0.009 1.19592,-0.002 -0.96,-0.28738 z m 38.48,-1.97357 c 0.66,-0.22521 1.02,-0.36729 0.8,-0.31573 -0.22,0.0516 -1.50115,0.1317 -2.84702,0.17808 -2.4338,0.0839 -2.44548,0.0861 -2.16,0.40444 0.2579,0.28763 0.42502,0.31112 1.64702,0.2314 0.82842,-0.054 1.82904,-0.24876 2.56,-0.49819 z m -35.92,0.14027 c -0.088,-0.034 -1.06,-0.21254 -2.16,-0.3967 -14.50168,-2.42797 -26.16781,-10.38021 -31.27333,-21.31751 -0.86793,-1.85932 -1.52606,-3.82062 -2.10688,-6.27866 -0.43048,-1.8218 -0.45345,-2.10823 -0.44917,-5.6 0.005,-4.05476 0.19407,-5.38037 1.20394,-8.43985 0.55784,-1.69001 2.06338,-4.91207 2.92346,-6.25658 0.67707,-1.05843 0.69208,-1.18053 0.25129,-2.04452 l -0.33069,-0.6482 -0.64033,0.85457 c -4.01535,5.35877 -6.18775,12.82056 -5.58245,19.17458 1.16021,12.1788 9.7369,22.44636 23.1176,27.67513 3.76435,1.47099 8.33008,2.60827 12.50325,3.11445 1.73139,0.21 2.84989,0.28182 2.54331,0.16329 z m 37.04,-2.6116 c 1.15096,-0.31193 2.93506,-0.98222 2.84378,-1.0684 -0.0241,-0.0227 -0.65578,0.10165 -1.40378,0.27637 -1.98483,0.46365 -6.60787,0.58283 -8.53811,0.22013 -0.77997,-0.14656 -1.45997,-0.22464 -1.51112,-0.17349 -0.0511,0.0512 0.047,0.23274 0.21813,0.40354 0.81369,0.81217 5.89235,1.01909 8.3911,0.34185 z m -44.28579,-1.2943 c -10.46272,-3.84843 -18.61527,-11.29902 -22.3296,-20.40697 -2.63391,-6.45863 -2.8472,-12.57933 -0.64264,-18.44145 l 0.58613,-1.55855 -0.30405,-1.17074 c -0.16723,-0.6439 -0.36826,-1.1839 -0.44674,-1.2 -0.2496,-0.0512 -1.81329,3.25938 -2.48051,5.25162 -0.96587,2.88396 -1.20184,4.4418 -1.1995,7.91912 0.002,3.37561 0.25593,4.92596 1.33779,8.17588 3.32473,9.98765 12.63752,18.02024 25.12491,21.67111 2.65194,0.77532 2.81474,0.66502 0.35421,-0.24002 z m 43.88579,-1.20914 c 0.88,-0.13214 1.996,-0.35438 2.48,-0.49385 1.15642,-0.33325 3.3992,-1.19813 3.31786,-1.27946 -0.0351,-0.0351 -0.57964,0.1116 -1.21004,0.32602 -2.47344,0.84126 -4.21276,1.10637 -7.30782,1.11384 -3.17046,0.008 -4.65603,-0.20546 -7.0573,-1.01239 -1.51387,-0.50872 -1.80408,-0.35843 -0.45768,0.23701 2.72234,1.20395 6.71855,1.6369 10.23498,1.10883 z m -44.32912,-1.42187 c -5.84238,-2.88902 -11.04986,-7.51134 -14.70872,-13.05596 -3.31722,-5.02688 -4.35157,-7.96822 -5.75627,-16.36893 -0.37973,-2.27091 -0.72819,-4.16671 -0.77437,-4.21289 -0.0462,-0.0462 -0.21616,0.47984 -0.37774,1.16893 -0.41807,1.78292 -0.42029,7.05956 -0.004,9.01289 1.97651,9.26983 8.93651,17.66246 18.59001,22.41659 1.98547,0.97779 4.52898,2.03387 4.95088,2.05563 0.083,0.004 -0.78102,-0.45304 -1.92,-1.01626 z m 6.80912,0.30011 c 0,-0.0462 -0.28827,-0.54038 -0.64061,-1.09827 -1.32401,-2.09641 -2.83222,-5.98913 -3.36681,-8.68984 -0.6189,-3.12664 -0.43197,-7.60627 0.34419,-8.24796 0.77709,-0.64246 4.56217,-0.22776 7.98323,0.87464 2.43872,0.78586 4.34818,1.6625 6.92341,3.17856 3.94381,2.32176 6.2823,4.06724 9.63659,7.19289 2.03306,1.89448 3.17763,2.73706 4.88,3.59242 4.69726,2.36014 10.4463,2.70097 15.83674,0.93888 3.09089,-1.01042 5.80443,-2.64428 7.92436,-4.7714 1.93424,-1.9408 3.54532,-4.1375 5.2789,-7.19782 2.5471,-4.49644 4.55424,-6.03773 9.40362,-7.22107 4.61947,-1.12724 7.50153,-2.6679 10.45161,-5.5871 2.96107,-2.93009 4.49296,-6.0571 4.66373,-9.52 0.0807,-1.63577 0.0749,-1.67293 -0.21806,-1.41144 -0.16549,0.14771 -0.6609,0.43128 -1.1009,0.63016 -0.70016,0.31647 -1.06958,0.36253 -2.96,0.36906 -1.188,0.004 -3.42,-0.0543 -4.96,-0.12981 -2.30922,-0.1132 -3.05621,-0.0923 -4.26171,0.11921 -3.84671,0.67495 -5.93408,1.83918 -8.43186,4.70282 -0.24945,0.286 -0.60379,0.52 -0.78739,0.52 -0.47325,0 -0.91877,-0.45723 -0.92061,-0.9448 -0.004,-1.19919 -1.54022,-3.32389 -3.42398,-4.73716 -1.6397,-1.23017 -3.1385,-1.92063 -5.56007,-2.56138 -1.1739,-0.31061 -2.49438,-0.67958 -2.93438,-0.81992 -2.31245,-0.73759 -4.98173,-2.20183 -6.51349,-3.57302 l -0.9135,-0.81772 -0.2865,0.927 c -0.22985,0.74367 -0.28462,1.4649 -0.27701,3.647 0.009,2.49914 0.0453,2.83685 0.45064,4.15912 1.04679,3.41497 2.8828,6.38743 5.69461,9.21932 1.82149,1.83452 4.01224,3.58418 5.80519,4.63637 1.77728,1.04301 2.03228,2.683 0.64739,4.16357 -2.61408,2.79466 -8.20869,2.62263 -14.32832,-0.4406 -1.90275,-0.95243 -5.04331,-3.01047 -6.95739,-4.55923 -2.83218,-2.29163 -8.3456,-8.05822 -12.44704,-13.01855 -3.29636,-3.98665 -9.37148,-10.78968 -11.23471,-12.58082 -4.99469,-4.80143 -9.91358,-8.33654 -15.31987,-11.0101 -6.94149,-3.43276 -12.37109,-4.81358 -18.96,-4.82179 -6.58608,-0.008 -12.324485,1.65895 -17.520005,5.09003 -1.49707,0.98865 -3.74483,2.7627 -3.50035,2.76265 0.0772,-2e-5 0.68035,-0.10226 1.34035,-0.22722 5.06592,-0.95912 9.71048,0.0641 14.320005,3.15463 1.32746,0.89003 4.17267,3.79163 5.10501,5.20619 2.94781,4.47245 4.13664,8.19569 5.60259,17.54643 0.75659,4.82605 1.11787,6.47615 2.03054,9.27442 1.71133,5.24693 4.41373,9.5058 8.64428,13.62305 2.81089,2.73563 5.47355,4.64302 8.84043,6.33286 2.28405,1.14635 6.01715,2.4652 6.01715,2.12574 z m -21.6,-33.49659 c -1.43802,-0.47175 -2.78594,-1.66907 -3.41269,-3.03138 -0.52648,-1.14433 -0.49125,-3.1611 0.0764,-4.37178 0.54082,-1.15355 1.52451,-2.13558 2.67264,-2.66814 1.31902,-0.61183 3.10043,-0.6048 4.36923,0.0172 1.18992,0.58338 2.14651,1.53262 2.67023,2.64971 0.35774,0.76307 0.42305,1.11796 0.41673,2.26486 -0.006,1.14361 -0.0769,1.50364 -0.4435,2.26285 -0.48615,1.00662 -1.48155,2.01042 -2.53311,2.55444 -0.528,0.27316 -1.02404,0.37129 -2.0559,0.40672 -0.748,0.0257 -1.54,-0.0124 -1.76,-0.0845 z m 3.30477,-2.34554 c 2.27566,-1.33363 1.99851,-4.87832 -0.46181,-5.90631 -1.34166,-0.56058 -3.01322,-0.14924 -3.93427,0.96816 -0.54746,0.66414 -0.68611,1.06937 -0.22869,0.6683 1.39696,-1.22486 3.55398,-0.93041 4.4557,0.60824 0.86728,1.47992 0.21572,3.43426 -1.3757,4.12642 -0.132,0.0574 0.007,0.0669 0.30902,0.021 0.30196,-0.0459 0.85805,-0.26447 1.23575,-0.48582 z m 12.24808,-43.04262 c 1.48211,-0.50501 2.68349,-1.99068 2.92793,-3.62082 0.24653,-1.64395 -0.77403,-3.5423 -2.32766,-4.32967 -1.7509,-0.88736 -3.45026,-0.69985 -4.85376,0.53555 -0.98699,0.86879 -1.40858,1.72266 -1.5035,3.04517 -0.064,0.89085 -0.013,1.19973 0.31724,1.92097 1.0006,2.18558 3.24586,3.19633 5.43975,2.4488 z"
       id="path372" />
  </g>
</svg>
